<svg width="65" height="65" fill="none" xmlns="http://www.w3.org/2000/svg"><g clip-path="url(#clip0_310_40)"><rect x="65" y="65" width="65" height="65" rx="32.5" transform="rotate(-180 65 65)" fill="#1F1E1C"/><path d="M32.11 3.177c3.986 0 7.684.75 11.093 2.253 3.409 1.56 6.356 3.611 8.84 6.154L47.71 16.61c-2.022-2.138-4.391-3.871-7.107-5.2-2.773-1.271-5.633-1.907-8.58-1.907-3.756 0-6.673.838-8.753 2.514-2.08 1.733-3.12 3.986-3.12 6.76 0 1.964.433 3.524 1.3 4.68.809 1.155 1.935 2.138 3.38 2.947 1.386.808 2.975 1.617 4.766 2.426l8.147 3.553c1.791.752 3.582 1.734 5.373 2.947 1.734 1.214 3.207 2.773 4.42 4.68 1.156 1.907 1.734 4.247 1.734 7.02 0 2.889-.751 5.46-2.254 7.713-1.56 2.312-3.697 4.103-6.413 5.374-2.715 1.329-5.778 1.993-9.187 1.993s-6.557-.664-9.446-1.993c-2.89-1.271-5.345-2.947-7.367-5.027l3.9-4.68c1.733 1.676 3.669 2.976 5.807 3.9 2.08.982 4.449 1.473 7.106 1.473 3.178 0 5.75-.75 7.714-2.253 1.906-1.502 2.86-3.524 2.86-6.066 0-1.792-.462-3.294-1.387-4.507-.982-1.156-2.196-2.11-3.64-2.86a61.629 61.629 0 00-4.42-2.08l-8.06-3.467c-2.195-.924-4.16-2.051-5.893-3.38a13.996 13.996 0 01-4.247-4.767c-1.04-1.848-1.56-4.188-1.56-7.02 0-3.004.78-5.748 2.34-8.233 1.56-2.427 3.784-4.362 6.673-5.807 2.89-1.444 6.327-2.166 10.314-2.166z" fill="#fff"/><path d="M32.054 25.734a6.12 6.12 0 01-2.496-.507 6.576 6.576 0 01-1.989-1.384l.975-1.131a5.52 5.52 0 001.599 1.17 4.586 4.586 0 001.93.428c.846 0 1.502-.188 1.97-.565.468-.39.702-.897.702-1.521 0-.442-.097-.793-.292-1.053a2.246 2.246 0 00-.761-.663c-.312-.182-.67-.364-1.072-.546l-1.833-.8a6.962 6.962 0 01-1.21-.662 3.674 3.674 0 01-.994-1.053c-.26-.43-.39-.956-.39-1.58 0-.65.169-1.229.507-1.736.351-.52.832-.922 1.443-1.209.611-.299 1.3-.448 2.067-.448.767 0 1.475.15 2.126.448.65.287 1.202.663 1.657 1.131l-.878 1.053a4.358 4.358 0 00-1.306-.877c-.468-.221-1.001-.331-1.599-.331-.715 0-1.294.168-1.736.507-.428.338-.643.793-.643 1.365 0 .402.104.74.312 1.014.221.26.494.474.819.643.325.169.657.325.994.468l1.814.78a6.02 6.02 0 011.326.76c.403.287.722.644.956 1.073.233.416.35.943.35 1.58 0 .675-.175 1.293-.526 1.852-.351.546-.851.982-1.502 1.306-.65.326-1.423.488-2.32.488zm.17 28.3c-1.066 0-2.015-.273-2.847-.82-.819-.545-1.462-1.319-1.93-2.32-.456-1-.683-2.184-.683-3.549 0-1.365.227-2.535.683-3.51.468-.988 1.111-1.742 1.93-2.262.832-.533 1.781-.8 2.847-.8 1.079 0 2.028.267 2.847.8.819.52 1.462 1.274 1.93 2.262.468.975.703 2.145.703 3.51 0 1.365-.235 2.548-.703 3.55-.468 1-1.111 1.774-1.93 2.32-.819.546-1.768.819-2.847.819zm0-1.424c.767 0 1.43-.214 1.989-.643.572-.442 1.014-1.053 1.326-1.833.312-.793.468-1.723.468-2.789 0-1.586-.344-2.84-1.033-3.763-.69-.923-1.606-1.385-2.75-1.385s-2.06.462-2.75 1.385c-.689.923-1.033 2.177-1.033 3.763 0 1.066.156 1.996.468 2.789.312.78.754 1.39 1.326 1.833.572.429 1.235.643 1.989.643z" fill="#fff"/></g><defs><clipPath id="clip0_310_40"><rect x="65" y="65" width="65" height="65" rx="32.5" transform="rotate(-180 65 65)" fill="#fff"/></clipPath></defs></svg>